<?xml version="1.0" encoding="UTF-8"?>
<svg width="24" height="24" viewBox="0 0 24 24" fill="none" xmlns="http://www.w3.org/2000/svg">
  <path d="M11 5H6C4.89543 5 4 5.89543 4 7V19C4 20.1046 4.89543 21 6 21H17C18.1046 21 19 20.1046 19 19V14M17.4142 2.58579C18.1953 3.36683 18.1953 4.63316 17.4142 5.41421L10.8284 12L9 14L11 16L17.5858 9.41421C18.3668 8.63316 18.3668 7.36683 17.5858 6.58579L14.4142 3.41421C13.6332 2.63316 12.3668 2.63316 11.5858 3.41421L11 4L12.8284 5.82843L14.2426 7.24264L17.4142 4.07107L17.4142 2.58579Z" stroke="currentColor" stroke-width="2" stroke-linecap="round" stroke-linejoin="round"/>
</svg>